<svg xmlns="http://www.w3.org/2000/svg" width="32" height="32" viewBox="0 0 32 32">
  <path d="M4.59 16L4.97 7.62L6.78 7.62Q8.32 9.82 9.44 12L9.54 12L9.54 11.90L9.44 9.14L9.44 8.95L9.35 8.47L10.69 7.90L10.69 8L11.83 14L9.44 15.81L9.35 15.81Q8.55 12.57 8.01 12.57L6.68 11.14L6.68 16" fill="#62b635"/>
  <path d="M12.96 10.36L15.71 7.60L19.04 7.60L20.78 9.63L18.90 10.79L17.60 9.48L17.45 9.48L16.15 10.79Q19.33 11.37 19.33 12.24L20.49 13.54L18.17 16L15.13 15.85L12.53 13.69L12.53 13.54L15.28 12.38Q15.28 12.84 16.44 13.97Q16.70 13.97 17.30 12.96L12.96 10.93" fill="#da345e"/>
  <path d="M22.71 9.57L22.71 7.64L25.03 7.64L28.12 8.80L28.12 11.63Q26.63 13.30 26.32 13.30L24.90 13.30L24.90 16L22.59 16L22.71 9.57M26.19 10.08L25.16 10.08L25.03 10.98L25.03 11.63Q25.24 11.63 26.19 10.08" fill="#138ce0"/>
  <path d="M10.51 20.71L10.51 19.73L15.43 22.56L15.43 23.05L10.51 25.87L10.51 24.89L14.17 22.81" fill="#fdd40f"/>
  <path d="M16.51 20.71L16.51 19.73L21.43 22.56L21.43 23.05L16.51 25.87L16.51 24.89L20.17 22.81" fill="#62b635"/>
</svg>
